<svg xmlns="http://www.w3.org/2000/svg" width="1816" height="912" viewBox="0 0 1816 912" role="img" aria-label="AuLeon logo" fill="#D4AF37">
  <path d="M 180 540 L 180 579 L 183 579 L 184 580 L 184 583 L 187 583 L 188 584 L 188 587 L 191 587 L 192 588 L 192 591 L 195 591 L 196 592 L 196 595 L 199 595 L 200 596 L 200 599 L 207 599 L 208 600 L 208 603 L 211 603 L 212 604 L 212 607 L 215 607 L 215 600 L 216 599 L 219 599 L 219 592 L 220 591 L 223 591 L 223 588 L 224 587 L 227 587 L 227 584 L 228 583 L 235 583 L 235 580 L 236 579 L 239 579 L 239 576 L 240 575 L 247 575 L 247 560 L 244 560 L 243 559 L 243 556 L 240 556 L 239 555 L 239 552 L 236 552 L 235 551 L 235 548 L 224 548 L 223 547 L 223 544 L 192 544 L 191 543 L 191 540 Z M 395 464 L 388 464 L 388 479 L 387 480 L 384 480 L 384 495 L 383 496 L 380 496 L 380 507 L 379 508 L 376 508 L 376 515 L 375 516 L 372 516 L 372 523 L 371 524 L 368 524 L 368 527 L 367 528 L 364 528 L 364 531 L 363 532 L 360 532 L 360 539 L 359 540 L 356 540 L 356 543 L 355 544 L 352 544 L 352 547 L 351 548 L 348 548 L 348 551 L 347 552 L 344 552 L 344 555 L 343 556 L 340 556 L 340 563 L 339 564 L 336 564 L 336 567 L 335 568 L 332 568 L 331 567 L 331 560 L 324 560 L 324 563 L 323 564 L 320 564 L 320 567 L 319 568 L 316 568 L 316 571 L 315 572 L 312 572 L 312 575 L 311 576 L 308 576 L 308 579 L 307 580 L 304 580 L 304 583 L 303 584 L 300 584 L 300 587 L 299 588 L 296 588 L 296 591 L 295 592 L 292 592 L 292 595 L 291 596 L 288 596 L 288 599 L 287 600 L 284 600 L 284 603 L 283 604 L 280 604 L 280 607 L 279 608 L 276 608 L 276 611 L 275 612 L 272 612 L 272 615 L 271 616 L 268 616 L 268 619 L 267 620 L 264 620 L 264 627 L 263 628 L 260 628 L 260 635 L 259 636 L 256 636 L 256 643 L 255 644 L 252 644 L 252 659 L 251 660 L 248 660 L 248 707 L 251 707 L 252 708 L 252 719 L 255 719 L 256 720 L 256 731 L 259 731 L 260 732 L 260 739 L 263 739 L 264 740 L 264 747 L 271 747 L 271 744 L 268 744 L 267 743 L 267 696 L 268 695 L 271 695 L 271 684 L 272 683 L 275 683 L 275 672 L 276 671 L 279 671 L 279 664 L 280 663 L 283 663 L 283 656 L 284 655 L 287 655 L 287 648 L 288 647 L 291 647 L 291 644 L 292 643 L 295 643 L 295 640 L 296 639 L 299 639 L 299 632 L 300 631 L 303 631 L 303 628 L 304 627 L 307 627 L 307 624 L 308 623 L 311 623 L 311 620 L 312 619 L 315 619 L 315 616 L 316 615 L 319 615 L 319 612 L 320 611 L 323 611 L 323 608 L 324 607 L 327 607 L 327 604 L 328 603 L 335 603 L 336 604 L 336 615 L 335 616 L 332 616 L 332 627 L 331 628 L 328 628 L 328 635 L 327 636 L 324 636 L 324 639 L 323 640 L 320 640 L 320 647 L 319 648 L 316 648 L 316 655 L 315 656 L 312 656 L 312 663 L 311 664 L 308 664 L 308 675 L 307 676 L 304 676 L 304 683 L 303 684 L 300 684 L 300 703 L 299 704 L 296 704 L 296 755 L 299 755 L 300 756 L 300 771 L 303 771 L 304 772 L 304 779 L 307 779 L 307 764 L 308 763 L 311 763 L 311 752 L 312 751 L 315 751 L 315 744 L 316 743 L 319 743 L 319 736 L 320 735 L 323 735 L 323 728 L 324 727 L 327 727 L 327 720 L 328 719 L 331 719 L 331 716 L 332 715 L 335 715 L 335 712 L 336 711 L 339 711 L 339 704 L 340 703 L 343 703 L 343 700 L 344 699 L 347 699 L 347 696 L 348 695 L 351 695 L 351 692 L 352 691 L 355 691 L 355 688 L 356 687 L 359 687 L 359 684 L 360 683 L 363 683 L 363 676 L 364 675 L 367 675 L 367 672 L 368 671 L 371 671 L 371 668 L 372 667 L 375 667 L 375 660 L 376 659 L 379 659 L 379 656 L 380 655 L 383 655 L 383 648 L 384 647 L 387 647 L 387 640 L 388 639 L 391 639 L 391 636 L 392 635 L 395 635 L 395 628 L 396 627 L 399 627 L 399 620 L 400 619 L 403 619 L 403 612 L 404 611 L 407 611 L 407 600 L 408 599 L 411 599 L 411 592 L 412 591 L 415 591 L 415 580 L 416 579 L 419 579 L 419 564 L 420 563 L 423 563 L 423 548 L 416 548 L 416 551 L 415 552 L 412 552 L 412 555 L 411 556 L 408 556 L 408 559 L 407 560 L 404 560 L 404 563 L 403 564 L 400 564 L 400 567 L 399 568 L 396 568 L 396 571 L 395 572 L 392 572 L 392 579 L 391 580 L 388 580 L 388 583 L 387 584 L 384 584 L 384 591 L 383 592 L 380 592 L 380 595 L 379 596 L 376 596 L 376 599 L 375 600 L 372 600 L 372 603 L 371 604 L 368 604 L 368 607 L 367 608 L 364 608 L 364 611 L 363 612 L 360 612 L 360 615 L 359 616 L 356 616 L 356 619 L 355 620 L 352 620 L 352 623 L 351 624 L 348 624 L 348 627 L 347 628 L 344 628 L 344 631 L 343 632 L 336 632 L 336 635 L 335 636 L 332 636 L 331 635 L 331 628 L 332 627 L 335 627 L 335 620 L 336 619 L 339 619 L 339 616 L 340 615 L 343 615 L 343 608 L 344 607 L 347 607 L 347 604 L 348 603 L 351 603 L 351 600 L 352 599 L 355 599 L 355 596 L 356 595 L 359 595 L 359 592 L 360 591 L 363 591 L 363 584 L 364 583 L 367 583 L 367 580 L 368 579 L 371 579 L 371 576 L 372 575 L 375 575 L 375 572 L 376 571 L 379 571 L 379 568 L 380 567 L 383 567 L 383 560 L 384 559 L 387 559 L 387 556 L 388 555 L 391 555 L 391 548 L 392 547 L 395 547 L 395 540 L 396 539 L 399 539 L 399 480 L 396 480 L 395 479 Z M 1532 372 L 1532 547 L 1567 547 L 1567 436 L 1568 435 L 1571 435 L 1571 420 L 1572 419 L 1575 419 L 1575 416 L 1576 415 L 1579 415 L 1579 412 L 1580 411 L 1583 411 L 1583 408 L 1584 407 L 1587 407 L 1587 404 L 1588 403 L 1595 403 L 1595 400 L 1596 399 L 1619 399 L 1620 400 L 1620 403 L 1627 403 L 1628 404 L 1628 407 L 1631 407 L 1632 408 L 1632 411 L 1635 411 L 1636 412 L 1636 415 L 1639 415 L 1640 416 L 1640 427 L 1643 427 L 1644 428 L 1644 547 L 1683 547 L 1683 440 L 1680 440 L 1679 439 L 1679 404 L 1676 404 L 1675 403 L 1675 396 L 1672 396 L 1671 395 L 1671 392 L 1668 392 L 1667 391 L 1667 384 L 1664 384 L 1663 383 L 1663 380 L 1656 380 L 1655 379 L 1655 376 L 1652 376 L 1651 375 L 1651 372 L 1644 372 L 1643 371 L 1643 368 L 1600 368 L 1600 371 L 1599 372 L 1592 372 L 1592 375 L 1591 376 L 1584 376 L 1584 379 L 1583 380 L 1580 380 L 1580 383 L 1579 384 L 1572 384 L 1572 387 L 1571 388 L 1568 388 L 1567 387 L 1567 372 Z M 1408 368 L 1408 371 L 1407 372 L 1392 372 L 1392 375 L 1391 376 L 1384 376 L 1384 379 L 1383 380 L 1380 380 L 1380 383 L 1379 384 L 1372 384 L 1372 387 L 1371 388 L 1368 388 L 1368 391 L 1367 392 L 1364 392 L 1364 395 L 1363 396 L 1360 396 L 1360 399 L 1359 400 L 1356 400 L 1356 407 L 1355 408 L 1352 408 L 1352 411 L 1351 412 L 1348 412 L 1348 423 L 1347 424 L 1344 424 L 1344 435 L 1343 436 L 1340 436 L 1340 483 L 1343 483 L 1344 484 L 1344 495 L 1347 495 L 1348 496 L 1348 507 L 1351 507 L 1352 508 L 1352 511 L 1355 511 L 1356 512 L 1356 519 L 1359 519 L 1360 520 L 1360 523 L 1363 523 L 1364 524 L 1364 527 L 1367 527 L 1368 528 L 1368 531 L 1371 531 L 1372 532 L 1372 535 L 1375 535 L 1376 536 L 1376 539 L 1383 539 L 1384 540 L 1384 543 L 1391 543 L 1392 544 L 1392 547 L 1407 547 L 1408 548 L 1408 551 L 1439 551 L 1439 548 L 1440 547 L 1455 547 L 1455 544 L 1456 543 L 1463 543 L 1463 540 L 1464 539 L 1471 539 L 1471 536 L 1472 535 L 1475 535 L 1475 532 L 1476 531 L 1479 531 L 1479 528 L 1480 527 L 1483 527 L 1483 524 L 1484 523 L 1487 523 L 1487 520 L 1488 519 L 1491 519 L 1491 516 L 1492 515 L 1495 515 L 1495 512 L 1496 511 L 1499 511 L 1499 504 L 1500 503 L 1503 503 L 1503 496 L 1504 495 L 1507 495 L 1507 480 L 1508 479 L 1511 479 L 1511 444 L 1508 444 L 1507 443 L 1507 424 L 1504 424 L 1503 423 L 1503 416 L 1500 416 L 1499 415 L 1499 408 L 1496 408 L 1495 407 L 1495 400 L 1492 400 L 1491 399 L 1491 396 L 1488 396 L 1487 395 L 1487 392 L 1484 392 L 1483 391 L 1483 388 L 1480 388 L 1479 387 L 1479 384 L 1472 384 L 1471 383 L 1471 380 L 1468 380 L 1467 379 L 1467 376 L 1460 376 L 1459 375 L 1459 372 L 1444 372 L 1443 371 L 1443 368 Z M 1416 399 L 1435 399 L 1436 400 L 1436 403 L 1447 403 L 1448 404 L 1448 407 L 1451 407 L 1452 408 L 1452 411 L 1459 411 L 1460 412 L 1460 419 L 1463 419 L 1464 420 L 1464 423 L 1467 423 L 1468 424 L 1468 431 L 1471 431 L 1472 432 L 1472 483 L 1471 484 L 1468 484 L 1468 491 L 1467 492 L 1464 492 L 1464 499 L 1463 500 L 1460 500 L 1460 503 L 1459 504 L 1456 504 L 1456 507 L 1455 508 L 1452 508 L 1452 511 L 1451 512 L 1440 512 L 1440 515 L 1439 516 L 1408 516 L 1407 515 L 1407 512 L 1400 512 L 1399 511 L 1399 508 L 1396 508 L 1395 507 L 1395 504 L 1392 504 L 1391 503 L 1391 500 L 1388 500 L 1387 499 L 1387 496 L 1384 496 L 1383 495 L 1383 488 L 1380 488 L 1379 487 L 1379 472 L 1376 472 L 1375 471 L 1375 448 L 1376 447 L 1379 447 L 1379 432 L 1380 431 L 1383 431 L 1383 424 L 1384 423 L 1387 423 L 1387 416 L 1388 415 L 1391 415 L 1391 412 L 1392 411 L 1395 411 L 1395 408 L 1396 407 L 1403 407 L 1403 404 L 1404 403 L 1415 403 L 1415 400 Z M 1232 368 L 1232 371 L 1231 372 L 1220 372 L 1220 375 L 1219 376 L 1212 376 L 1212 379 L 1211 380 L 1204 380 L 1204 383 L 1203 384 L 1200 384 L 1200 387 L 1199 388 L 1196 388 L 1196 391 L 1195 392 L 1192 392 L 1192 395 L 1191 396 L 1188 396 L 1188 399 L 1187 400 L 1184 400 L 1184 403 L 1183 404 L 1180 404 L 1180 411 L 1179 412 L 1176 412 L 1176 419 L 1175 420 L 1172 420 L 1172 435 L 1171 436 L 1168 436 L 1168 487 L 1171 487 L 1172 488 L 1172 499 L 1175 499 L 1176 500 L 1176 507 L 1179 507 L 1180 508 L 1180 515 L 1183 515 L 1184 516 L 1184 519 L 1187 519 L 1188 520 L 1188 523 L 1191 523 L 1192 524 L 1192 527 L 1195 527 L 1196 528 L 1196 531 L 1199 531 L 1200 532 L 1200 535 L 1203 535 L 1204 536 L 1204 539 L 1211 539 L 1212 540 L 1212 543 L 1219 543 L 1220 544 L 1220 547 L 1235 547 L 1236 548 L 1236 551 L 1267 551 L 1267 548 L 1268 547 L 1283 547 L 1283 544 L 1284 543 L 1291 543 L 1291 540 L 1292 539 L 1299 539 L 1299 536 L 1300 535 L 1303 535 L 1303 532 L 1304 531 L 1307 531 L 1307 528 L 1308 527 L 1311 527 L 1311 524 L 1312 523 L 1315 523 L 1315 520 L 1316 519 L 1319 519 L 1319 512 L 1312 512 L 1311 511 L 1311 508 L 1308 508 L 1307 507 L 1307 504 L 1304 504 L 1303 503 L 1303 500 L 1300 500 L 1299 499 L 1299 496 L 1296 496 L 1296 499 L 1295 500 L 1292 500 L 1292 503 L 1291 504 L 1288 504 L 1288 507 L 1287 508 L 1284 508 L 1284 511 L 1283 512 L 1276 512 L 1276 515 L 1275 516 L 1236 516 L 1235 515 L 1235 512 L 1228 512 L 1227 511 L 1227 508 L 1220 508 L 1219 507 L 1219 504 L 1216 504 L 1215 503 L 1215 500 L 1212 500 L 1211 499 L 1211 492 L 1208 492 L 1207 491 L 1207 476 L 1204 476 L 1203 475 L 1203 472 L 1204 471 L 1327 471 L 1327 436 L 1324 436 L 1323 435 L 1323 420 L 1320 420 L 1319 419 L 1319 408 L 1316 408 L 1315 407 L 1315 400 L 1312 400 L 1311 399 L 1311 396 L 1308 396 L 1307 395 L 1307 392 L 1304 392 L 1303 391 L 1303 388 L 1300 388 L 1299 387 L 1299 384 L 1296 384 L 1295 383 L 1295 380 L 1288 380 L 1287 379 L 1287 376 L 1280 376 L 1279 375 L 1279 372 L 1268 372 L 1267 371 L 1267 368 Z M 1203 436 L 1204 435 L 1207 435 L 1207 424 L 1208 423 L 1211 423 L 1211 420 L 1212 419 L 1215 419 L 1215 412 L 1216 411 L 1219 411 L 1219 408 L 1220 407 L 1227 407 L 1227 404 L 1228 403 L 1235 403 L 1235 400 L 1236 399 L 1263 399 L 1264 400 L 1264 403 L 1271 403 L 1272 404 L 1272 407 L 1275 407 L 1276 408 L 1276 411 L 1279 411 L 1280 412 L 1280 415 L 1283 415 L 1284 416 L 1284 419 L 1287 419 L 1288 420 L 1288 431 L 1291 431 L 1292 432 L 1292 443 L 1291 444 L 1288 444 L 1287 443 L 1287 440 L 1216 440 L 1216 443 L 1215 444 L 1212 444 L 1211 443 L 1211 440 L 1204 440 L 1203 439 Z M 1032 312 L 1032 547 L 1163 547 L 1163 512 L 1072 512 L 1071 511 L 1071 364 L 1068 364 L 1067 363 L 1067 324 L 1068 323 L 1071 323 L 1071 312 Z M 395 264 L 368 264 L 368 267 L 367 268 L 360 268 L 360 271 L 359 272 L 356 272 L 356 275 L 355 276 L 348 276 L 348 279 L 347 280 L 344 280 L 344 283 L 343 284 L 340 284 L 340 287 L 339 288 L 332 288 L 332 291 L 331 292 L 320 292 L 319 291 L 319 288 L 272 288 L 272 291 L 271 292 L 260 292 L 260 295 L 259 296 L 248 296 L 248 299 L 247 300 L 244 300 L 244 303 L 243 304 L 232 304 L 232 307 L 231 308 L 224 308 L 224 311 L 223 312 L 220 312 L 220 315 L 219 316 L 216 316 L 216 319 L 215 320 L 212 320 L 212 323 L 211 324 L 208 324 L 208 327 L 207 328 L 204 328 L 204 331 L 203 332 L 200 332 L 200 339 L 199 340 L 196 340 L 196 343 L 195 344 L 192 344 L 192 367 L 191 368 L 188 368 L 188 371 L 187 372 L 184 372 L 184 375 L 183 376 L 180 376 L 180 379 L 179 380 L 176 380 L 176 383 L 175 384 L 172 384 L 172 391 L 171 392 L 168 392 L 168 395 L 167 396 L 164 396 L 164 399 L 163 400 L 160 400 L 160 403 L 159 404 L 156 404 L 156 411 L 155 412 L 152 412 L 152 415 L 151 416 L 148 416 L 148 419 L 147 420 L 144 420 L 144 427 L 143 428 L 140 428 L 140 431 L 139 432 L 136 432 L 136 435 L 135 436 L 132 436 L 132 443 L 131 444 L 128 444 L 128 451 L 131 451 L 132 452 L 132 455 L 135 455 L 136 456 L 136 463 L 143 463 L 143 460 L 144 459 L 147 459 L 147 456 L 148 455 L 151 455 L 151 452 L 152 451 L 179 451 L 180 452 L 180 459 L 179 460 L 176 460 L 176 463 L 175 464 L 172 464 L 172 467 L 171 468 L 168 468 L 168 471 L 167 472 L 164 472 L 164 475 L 163 476 L 160 476 L 160 483 L 159 484 L 156 484 L 156 491 L 159 491 L 160 492 L 160 499 L 163 499 L 164 500 L 164 507 L 167 507 L 168 508 L 168 511 L 175 511 L 176 512 L 176 515 L 183 515 L 184 516 L 184 519 L 195 519 L 196 520 L 196 523 L 231 523 L 231 520 L 232 519 L 255 519 L 256 520 L 256 523 L 263 523 L 264 524 L 264 527 L 267 527 L 268 528 L 268 531 L 271 531 L 271 524 L 272 523 L 275 523 L 275 512 L 276 511 L 279 511 L 279 488 L 276 488 L 275 487 L 275 476 L 272 476 L 271 475 L 271 468 L 268 468 L 267 467 L 267 460 L 264 460 L 263 459 L 263 452 L 264 451 L 299 451 L 300 452 L 300 455 L 311 455 L 312 456 L 312 459 L 319 459 L 320 460 L 320 463 L 327 463 L 328 464 L 328 467 L 331 467 L 332 468 L 332 471 L 335 471 L 336 472 L 336 475 L 343 475 L 343 460 L 344 459 L 347 459 L 347 448 L 348 447 L 351 447 L 351 436 L 348 436 L 347 435 L 347 428 L 344 428 L 343 427 L 343 420 L 340 420 L 339 419 L 339 412 L 336 412 L 335 411 L 335 404 L 336 403 L 355 403 L 356 404 L 356 407 L 367 407 L 367 400 L 364 400 L 363 399 L 363 388 L 360 388 L 359 387 L 359 380 L 356 380 L 355 379 L 355 372 L 352 372 L 351 371 L 351 364 L 348 364 L 347 363 L 347 360 L 344 360 L 343 359 L 343 356 L 340 356 L 339 355 L 339 352 L 336 352 L 335 351 L 335 344 L 328 344 L 327 343 L 327 340 L 324 340 L 323 339 L 323 336 L 320 336 L 319 335 L 319 332 L 316 332 L 315 331 L 315 328 L 316 327 L 319 327 L 319 324 L 320 323 L 323 323 L 323 320 L 324 319 L 331 319 L 331 316 L 332 315 L 335 315 L 335 312 L 336 311 L 339 311 L 339 308 L 340 307 L 347 307 L 347 304 L 348 303 L 355 303 L 355 300 L 356 299 L 363 299 L 363 296 L 364 295 L 371 295 L 371 292 L 372 291 L 383 291 L 384 292 L 384 295 L 387 295 L 388 296 L 388 315 L 387 316 L 384 316 L 384 323 L 383 324 L 380 324 L 380 331 L 379 332 L 376 332 L 376 339 L 383 339 L 383 336 L 384 335 L 391 335 L 391 332 L 392 331 L 395 331 L 395 328 L 396 327 L 399 327 L 399 320 L 400 319 L 403 319 L 403 312 L 404 311 L 407 311 L 407 280 L 404 280 L 403 279 L 403 272 L 400 272 L 399 271 L 399 268 L 396 268 L 395 267 Z M 219 395 L 219 392 L 220 391 L 223 391 L 223 384 L 224 383 L 227 383 L 227 364 L 228 363 L 231 363 L 231 360 L 232 359 L 275 359 L 276 360 L 276 367 L 275 368 L 272 368 L 272 371 L 271 372 L 268 372 L 268 375 L 267 376 L 264 376 L 264 379 L 263 380 L 260 380 L 260 383 L 259 384 L 240 384 L 240 387 L 239 388 L 236 388 L 236 391 L 235 392 L 228 392 L 228 395 L 227 396 L 220 396 Z M 388 220 L 388 227 L 387 228 L 384 228 L 384 231 L 383 232 L 380 232 L 380 235 L 379 236 L 376 236 L 376 243 L 383 243 L 383 240 L 384 239 L 399 239 L 399 236 L 400 235 L 423 235 L 424 236 L 424 239 L 435 239 L 435 236 L 436 235 L 463 235 L 463 232 L 464 231 L 467 231 L 468 232 L 468 271 L 467 272 L 436 272 L 436 279 L 439 279 L 440 280 L 440 283 L 443 283 L 444 284 L 444 287 L 451 287 L 452 288 L 452 291 L 455 291 L 456 292 L 456 295 L 459 295 L 460 296 L 460 299 L 463 299 L 464 300 L 464 303 L 467 303 L 468 304 L 468 331 L 467 332 L 464 332 L 463 331 L 463 328 L 456 328 L 455 327 L 455 324 L 440 324 L 440 327 L 439 328 L 436 328 L 436 331 L 435 332 L 432 332 L 432 335 L 431 336 L 428 336 L 428 343 L 427 344 L 420 344 L 420 347 L 419 348 L 416 348 L 416 351 L 419 351 L 420 352 L 420 355 L 427 355 L 428 356 L 428 359 L 435 359 L 436 360 L 436 363 L 439 363 L 440 364 L 440 367 L 443 367 L 444 368 L 444 371 L 447 371 L 448 372 L 448 375 L 451 375 L 452 376 L 452 379 L 455 379 L 456 380 L 456 387 L 459 387 L 460 388 L 460 391 L 463 391 L 464 392 L 464 403 L 467 403 L 468 404 L 468 575 L 467 576 L 464 576 L 463 575 L 463 544 L 460 544 L 459 543 L 459 520 L 456 520 L 455 519 L 455 492 L 452 492 L 451 491 L 451 476 L 448 476 L 447 475 L 447 460 L 444 460 L 443 459 L 443 440 L 440 440 L 439 439 L 439 432 L 436 432 L 435 431 L 435 424 L 432 424 L 431 423 L 431 420 L 428 420 L 427 419 L 427 416 L 424 416 L 423 415 L 423 412 L 416 412 L 415 411 L 415 408 L 408 408 L 408 411 L 411 411 L 412 412 L 412 415 L 415 415 L 416 416 L 416 427 L 419 427 L 420 428 L 420 439 L 423 439 L 424 440 L 424 451 L 427 451 L 428 452 L 428 463 L 431 463 L 432 464 L 432 479 L 435 479 L 436 480 L 436 491 L 439 491 L 440 492 L 440 519 L 443 519 L 444 520 L 444 527 L 447 527 L 447 524 L 448 523 L 451 523 L 452 524 L 452 559 L 451 560 L 448 560 L 448 571 L 447 572 L 444 572 L 444 583 L 443 584 L 440 584 L 440 591 L 439 592 L 436 592 L 436 603 L 435 604 L 432 604 L 432 611 L 431 612 L 428 612 L 428 619 L 427 620 L 424 620 L 424 627 L 423 628 L 420 628 L 420 635 L 419 636 L 416 636 L 416 643 L 415 644 L 412 644 L 412 651 L 411 652 L 408 652 L 408 655 L 407 656 L 404 656 L 404 659 L 411 659 L 411 656 L 412 655 L 415 655 L 415 652 L 416 651 L 423 651 L 423 648 L 424 647 L 427 647 L 427 644 L 428 643 L 431 643 L 431 640 L 432 639 L 435 639 L 435 636 L 436 635 L 439 635 L 439 632 L 440 631 L 443 631 L 443 628 L 444 627 L 447 627 L 447 624 L 448 623 L 451 623 L 451 620 L 452 619 L 455 619 L 455 616 L 456 615 L 459 615 L 459 612 L 460 611 L 463 611 L 463 608 L 464 607 L 467 607 L 468 608 L 468 635 L 471 635 L 472 636 L 472 707 L 503 707 L 504 708 L 504 711 L 547 711 L 547 708 L 548 707 L 635 707 L 636 708 L 636 711 L 675 711 L 675 708 L 676 707 L 923 707 L 924 708 L 924 711 L 943 711 L 943 708 L 944 707 L 947 707 L 948 708 L 948 711 L 955 711 L 955 708 L 956 707 L 963 707 L 964 708 L 964 711 L 967 711 L 967 708 L 968 707 L 971 707 L 971 688 L 968 688 L 967 687 L 967 676 L 968 675 L 971 675 L 971 568 L 968 568 L 967 567 L 967 328 L 968 327 L 971 327 L 971 180 L 968 180 L 967 179 L 967 176 L 468 176 L 468 187 L 467 188 L 448 188 L 448 191 L 447 192 L 432 192 L 432 195 L 431 196 L 424 196 L 424 199 L 423 200 L 416 200 L 416 203 L 415 204 L 412 204 L 412 207 L 411 208 L 404 208 L 404 211 L 403 212 L 400 212 L 400 215 L 399 216 L 396 216 L 396 219 L 395 220 Z M 500 199 L 503 199 L 504 200 L 504 203 L 511 203 L 511 200 L 512 199 L 947 199 L 948 200 L 948 683 L 947 684 L 500 684 L 499 683 L 499 544 L 496 544 L 495 543 L 495 528 L 496 527 L 499 527 L 499 504 L 496 504 L 495 503 L 495 472 L 496 471 L 499 471 L 499 300 L 496 300 L 495 299 L 495 264 L 496 263 L 499 263 L 499 208 L 496 208 L 495 207 L 495 204 L 496 203 L 499 203 L 499 200 Z M 752 372 L 752 375 L 751 376 L 748 376 L 748 491 L 751 491 L 752 492 L 752 515 L 755 515 L 756 516 L 756 523 L 759 523 L 760 524 L 760 531 L 763 531 L 764 532 L 764 535 L 767 535 L 768 536 L 768 539 L 771 539 L 772 540 L 772 543 L 779 543 L 780 544 L 780 547 L 791 547 L 792 548 L 792 551 L 827 551 L 827 548 L 828 547 L 835 547 L 835 544 L 836 543 L 843 543 L 843 540 L 844 539 L 847 539 L 847 536 L 848 535 L 855 535 L 856 536 L 856 543 L 859 543 L 860 544 L 860 547 L 899 547 L 899 376 L 896 376 L 895 375 L 895 372 L 856 372 L 856 487 L 855 488 L 852 488 L 852 499 L 851 500 L 848 500 L 848 503 L 847 504 L 844 504 L 844 507 L 843 508 L 840 508 L 840 511 L 839 512 L 832 512 L 832 515 L 831 516 L 812 516 L 811 515 L 811 512 L 804 512 L 803 511 L 803 508 L 800 508 L 799 507 L 799 504 L 796 504 L 795 503 L 795 500 L 792 500 L 791 499 L 791 376 L 788 376 L 787 375 L 787 372 Z M 616 312 L 616 315 L 615 316 L 612 316 L 612 323 L 611 324 L 608 324 L 608 335 L 607 336 L 604 336 L 604 347 L 603 348 L 600 348 L 600 355 L 599 356 L 596 356 L 596 367 L 595 368 L 592 368 L 592 375 L 591 376 L 588 376 L 588 387 L 587 388 L 584 388 L 584 399 L 583 400 L 580 400 L 580 411 L 579 412 L 576 412 L 576 419 L 575 420 L 572 420 L 572 431 L 571 432 L 568 432 L 568 443 L 567 444 L 564 444 L 564 455 L 563 456 L 560 456 L 560 467 L 559 468 L 556 468 L 556 479 L 555 480 L 552 480 L 552 487 L 551 488 L 548 488 L 548 499 L 547 500 L 544 500 L 544 511 L 543 512 L 540 512 L 540 523 L 539 524 L 536 524 L 536 535 L 535 536 L 532 536 L 532 547 L 579 547 L 579 536 L 580 535 L 583 535 L 583 524 L 584 523 L 587 523 L 587 512 L 588 511 L 591 511 L 591 504 L 592 503 L 595 503 L 595 500 L 596 499 L 679 499 L 680 500 L 680 507 L 683 507 L 684 508 L 684 519 L 687 519 L 688 520 L 688 531 L 691 531 L 692 532 L 692 543 L 695 543 L 696 544 L 696 547 L 743 547 L 743 544 L 740 544 L 739 543 L 739 532 L 736 532 L 735 531 L 735 520 L 732 520 L 731 519 L 731 508 L 728 508 L 727 507 L 727 500 L 724 500 L 723 499 L 723 488 L 720 488 L 719 487 L 719 476 L 716 476 L 715 475 L 715 464 L 712 464 L 711 463 L 711 452 L 708 452 L 707 451 L 707 440 L 704 440 L 703 439 L 703 432 L 700 432 L 699 431 L 699 416 L 696 416 L 695 415 L 695 408 L 692 408 L 691 407 L 691 396 L 688 396 L 687 395 L 687 384 L 684 384 L 683 383 L 683 372 L 680 372 L 679 371 L 679 360 L 676 360 L 675 359 L 675 348 L 672 348 L 671 347 L 671 336 L 668 336 L 667 335 L 667 328 L 664 328 L 663 327 L 663 316 L 660 316 L 659 315 L 659 312 Z M 636 375 L 639 375 L 640 376 L 640 387 L 643 387 L 644 388 L 644 399 L 647 399 L 648 400 L 648 407 L 651 407 L 652 408 L 652 423 L 655 423 L 656 424 L 656 435 L 659 435 L 660 436 L 660 447 L 663 447 L 664 448 L 664 459 L 663 460 L 608 460 L 607 459 L 607 452 L 608 451 L 611 451 L 611 440 L 612 439 L 615 439 L 615 428 L 616 427 L 619 427 L 619 416 L 620 415 L 623 415 L 623 404 L 624 403 L 627 403 L 627 396 L 628 395 L 631 395 L 631 384 L 632 383 L 635 383 L 635 376 Z M 479 144 L 476 144 L 475 143 L 475 140 L 460 140 L 459 139 L 459 136 L 440 136 L 439 135 L 439 132 L 396 132 L 396 135 L 395 136 L 376 136 L 376 139 L 375 140 L 364 140 L 364 143 L 363 144 L 356 144 L 356 147 L 355 148 L 348 148 L 348 151 L 347 152 L 340 152 L 340 155 L 339 156 L 332 156 L 332 159 L 331 160 L 328 160 L 328 163 L 327 164 L 320 164 L 320 167 L 319 168 L 312 168 L 311 167 L 311 164 L 312 163 L 315 163 L 315 160 L 316 159 L 319 159 L 319 156 L 320 155 L 323 155 L 323 148 L 320 148 L 320 151 L 319 152 L 312 152 L 312 155 L 311 156 L 308 156 L 308 159 L 307 160 L 300 160 L 300 163 L 299 164 L 296 164 L 296 167 L 295 168 L 288 168 L 288 171 L 287 172 L 284 172 L 284 175 L 283 176 L 280 176 L 280 179 L 279 180 L 276 180 L 276 183 L 275 184 L 272 184 L 272 187 L 271 188 L 268 188 L 268 191 L 267 192 L 264 192 L 264 195 L 263 196 L 260 196 L 260 199 L 259 200 L 256 200 L 256 207 L 255 208 L 252 208 L 252 211 L 251 212 L 248 212 L 248 219 L 247 220 L 244 220 L 244 223 L 243 224 L 240 224 L 240 235 L 239 236 L 236 236 L 236 251 L 235 252 L 232 252 L 232 279 L 239 279 L 239 276 L 240 275 L 243 275 L 243 272 L 244 271 L 247 271 L 247 268 L 248 267 L 255 267 L 255 260 L 256 259 L 259 259 L 259 248 L 260 247 L 263 247 L 263 240 L 264 239 L 267 239 L 267 232 L 268 231 L 271 231 L 271 228 L 272 227 L 275 227 L 275 220 L 276 219 L 279 219 L 279 216 L 280 215 L 283 215 L 283 212 L 284 211 L 291 211 L 292 212 L 292 215 L 291 216 L 288 216 L 288 223 L 287 224 L 284 224 L 284 235 L 283 236 L 280 236 L 280 247 L 279 248 L 276 248 L 276 263 L 283 263 L 283 260 L 284 259 L 303 259 L 303 256 L 304 255 L 315 255 L 315 252 L 316 251 L 327 251 L 327 248 L 328 247 L 331 247 L 331 240 L 332 239 L 335 239 L 335 232 L 336 231 L 339 231 L 339 224 L 340 223 L 343 223 L 343 220 L 344 219 L 347 219 L 347 212 L 348 211 L 351 211 L 351 208 L 352 207 L 355 207 L 355 204 L 356 203 L 359 203 L 359 196 L 360 195 L 363 195 L 363 192 L 364 191 L 367 191 L 367 188 L 368 187 L 371 187 L 371 184 L 372 183 L 375 183 L 375 180 L 376 179 L 383 179 L 383 176 L 384 175 L 387 175 L 387 172 L 388 171 L 395 171 L 395 168 L 396 167 L 403 167 L 403 164 L 404 163 L 411 163 L 411 160 L 412 159 L 419 159 L 419 156 L 420 155 L 431 155 L 431 152 L 432 151 L 443 151 L 443 148 L 444 147 L 479 147 Z" fill="#D4AF37" fill-rule="evenodd"></path>
</svg>