<svg xmlns="http://www.w3.org/2000/svg" viewBox="0 0 3369 4615" role="img" aria-label="Auleon lion head mark">
  <title>Auleon lion head mark</title>
  <path d="M 2078.00 1067.00 C 2059.20 1043.40, 2017.93 1007.60, 1983.00 998.00 C 1948.07 988.40, 1876.40 969.93, 1816.00 995.00 C 1755.60 1020.07, 1585.47 1167.60, 1530.00 1186.00 C 1474.53 1204.40, 1423.47 1149.93, 1400.00 1133.00 C 1376.53 1116.07, 1377.33 1077.27, 1354.00 1059.00 C 1330.67 1040.73, 1272.87 1001.87, 1225.00 996.00 C 1177.13 990.13, 1039.80 1005.00, 995.00 1015.00 C 950.20 1025.00, 914.07 1067.93, 889.00 1071.00 C 863.93 1074.07, 856.47 998.40, 807.00 1038.00 C 757.53 1077.60, 559.87 1302.53, 518.00 1368.00 C 476.13 1433.47, 550.07 1441.80, 493.00 1529.00 C 435.93 1616.20, 138.40 1942.40, 90.00 2022.00 C 41.60 2101.60, 84.27 2113.73, 130.00 2126.00 C 175.73 2138.27, 399.67 2104.93, 433.00 2114.00 C 466.33 2123.07, 399.47 2174.93, 380.00 2194.00 C 360.53 2213.07, 298.20 2220.47, 287.00 2257.00 C 275.80 2293.53, 280.40 2426.00, 296.00 2468.00 C 311.60 2510.00, 358.53 2546.53, 404.00 2572.00 C 449.47 2597.47, 565.13 2649.80, 637.00 2659.00 C 708.87 2668.20, 877.93 2634.20, 943.00 2641.00 C 1008.07 2647.80, 1091.80 2720.27, 1125.00 2710.00 C 1158.20 2699.73, 1183.07 2604.53, 1192.00 2564.00 C 1200.93 2523.47, 1200.80 2447.47, 1192.00 2406.00 C 1183.20 2364.53, 1151.33 2291.00, 1126.00 2253.00 C 1100.67 2215.00, 994.80 2140.47, 1002.00 2121.00 C 1009.20 2101.53, 1105.33 2093.40, 1180.00 2107.00 C 1254.67 2120.60, 1501.87 2237.00, 1562.00 2223.00 C 1622.13 2209.00, 1641.00 2056.27, 1631.00 2002.00 C 1621.00 1947.73, 1487.40 1840.53, 1487.00 1816.00 C 1486.60 1791.47, 1586.93 1809.73, 1628.00 1818.00 C 1669.07 1826.27, 1767.93 1873.33, 1795.00 1878.00 C 1822.07 1882.67, 1846.20 1895.40, 1831.00 1853.00 C 1815.80 1810.60, 1733.53 1628.80, 1681.00 1560.00 C 1628.47 1491.20, 1421.93 1390.87, 1437.00 1337.00 C 1452.07 1283.13, 1734.27 1180.93, 1794.00 1156.00 C 1853.73 1131.07, 1860.87 1139.73, 1885.00 1150.00 C 1909.13 1160.27, 1963.53 1208.20, 1975.00 1233.00 C 1986.47 1257.80, 1983.00 1302.27, 1971.00 1336.00 C 1959.00 1369.73, 1880.87 1466.80, 1885.00 1486.00 C 1889.13 1505.20, 1972.00 1502.40, 2002.00 1480.00 C 2032.00 1457.60, 2093.73 1358.67, 2110.00 1318.00 C 2126.27 1277.33, 2128.27 1208.47, 2124.00 1175.00 C 2119.73 1141.53, 2096.80 1090.60, 2078.00 1067.00 Z&#xA;    M 2104.00 1713.00 C 2063.33 1696.33, 2047.73 1715.20, 2060.00 1740.00 C 2072.27 1764.80, 2164.53 1849.00, 2196.00 1899.00 C 2227.47 1949.00, 2278.93 2056.20, 2296.00 2115.00 C 2313.07 2173.80, 2322.80 2307.87, 2324.00 2340.00 C 2325.20 2372.13, 2318.47 2369.87, 2305.00 2356.00 C 2291.53 2342.13, 2257.13 2267.60, 2223.00 2236.00 C 2188.87 2204.40, 2058.33 2095.00, 2049.00 2119.00 C 2039.67 2143.00, 2133.53 2330.80, 2153.00 2416.00 C 2172.47 2501.20, 2219.40 2634.13, 2195.00 2758.00 C 2170.60 2881.87, 2011.07 3253.93, 1970.00 3345.00 C 1928.93 3436.07, 1886.73 3507.53, 1887.00 3441.00 C 1887.27 3374.47, 1966.53 2956.53, 1972.00 2846.00 C 1977.47 2735.47, 1948.53 2661.87, 1928.00 2612.00 C 1907.47 2562.13, 1836.00 2457.47, 1818.00 2472.00 C 1800.00 2486.53, 1821.13 2635.80, 1793.00 2721.00 C 1764.87 2806.20, 1670.60 3010.07, 1607.00 3111.00 C 1543.40 3211.93, 1344.53 3473.87, 1316.00 3478.00 C 1287.47 3482.13, 1387.00 3200.80, 1393.00 3142.00 C 1399.00 3083.20, 1408.07 2971.53, 1361.00 3037.00 C 1313.93 3102.47, 1085.87 3509.13, 1040.00 3633.00 C 994.13 3756.87, 1014.87 3900.13, 1017.00 3966.00 C 1019.13 4031.87, 1015.87 4056.87, 1056.00 4127.00 C 1096.13 4197.13, 1287.47 4498.27, 1318.00 4492.00 C 1348.53 4485.73, 1256.33 4204.00, 1285.00 4080.00 C 1313.67 3956.00, 1482.60 3644.40, 1533.00 3562.00 C 1583.40 3479.60, 1657.53 3432.40, 1663.00 3462.00 C 1668.47 3491.60, 1586.13 3701.33, 1574.00 3784.00 C 1561.87 3866.67, 1550.40 4000.27, 1572.00 4082.00 C 1593.60 4163.73, 1711.87 4383.13, 1736.00 4397.00 C 1760.13 4410.87, 1733.67 4251.33, 1753.00 4186.00 C 1772.33 4120.67, 1799.00 4021.40, 1881.00 3907.00 C 1963.00 3792.60, 2269.73 3468.93, 2368.00 3328.00 C 2466.27 3187.07, 2578.80 2960.67, 2618.00 2850.00 C 2657.20 2739.33, 2670.53 2597.33, 2662.00 2498.00 C 2653.47 2398.67, 2593.60 2189.40, 2554.00 2105.00 C 2514.40 2020.60, 2425.00 1917.27, 2365.00 1865.00 C 2305.00 1812.73, 2144.67 1729.67, 2104.00 1713.00 Z&#xA;    M 2287.00 1067.00 C 2257.40 1077.53, 2244.20 1085.40, 2293.00 1141.00 C 2341.80 1196.60, 2599.80 1428.93, 2653.00 1484.00 C 2706.20 1539.07, 2690.53 1543.47, 2692.00 1554.00 C 2693.47 1564.53, 2703.07 1580.33, 2664.00 1563.00 C 2624.93 1545.67, 2451.27 1442.13, 2399.00 1424.00 C 2346.73 1405.87, 2293.60 1418.73, 2272.00 1427.00 C 2250.40 1435.27, 2220.47 1462.00, 2237.00 1486.00 C 2253.53 1510.00, 2298.40 1508.60, 2396.00 1607.00 C 2493.60 1705.40, 2871.13 2090.53, 2969.00 2224.00 C 3066.87 2357.47, 3105.47 2529.47, 3130.00 2608.00 C 3154.53 2686.53, 3145.67 2783.93, 3153.00 2813.00 C 3160.33 2842.07, 3170.20 2861.47, 3185.00 2826.00 C 3199.80 2790.53, 3250.40 2635.80, 3264.00 2547.00 C 3277.60 2458.20, 3295.67 2263.60, 3287.00 2160.00 C 3278.33 2056.40, 3225.00 1851.33, 3199.00 1770.00 C 3173.00 1688.67, 3115.87 1592.67, 3092.00 1550.00 C 3068.13 1507.33, 3072.80 1503.33, 3020.00 1450.00 C 2967.20 1396.67, 2763.33 1201.73, 2696.00 1150.00 C 2628.67 1098.27, 2569.53 1073.07, 2515.00 1062.00 C 2460.47 1050.93, 2316.60 1056.47, 2287.00 1067.00 Z&#xA;    M 1473.00 882.00 C 1451.93 914.67, 1477.87 901.93, 1494.00 905.00 C 1510.13 908.07, 1554.53 914.07, 1594.00 905.00 C 1633.47 895.93, 1735.07 848.60, 1790.00 837.00 C 1844.93 825.40, 1952.93 809.07, 2006.00 818.00 C 2059.07 826.93, 2120.13 886.40, 2188.00 904.00 C 2255.87 921.60, 2439.13 934.00, 2515.00 950.00 C 2590.87 966.00, 2696.73 999.87, 2757.00 1024.00 C 2817.27 1048.13, 2910.47 1092.20, 2967.00 1131.00 C 3023.53 1169.80, 3148.73 1291.80, 3181.00 1315.00 C 3213.27 1338.20, 3214.47 1328.07, 3209.00 1305.00 C 3203.53 1281.93, 3172.80 1195.33, 3140.00 1142.00 C 3107.20 1088.67, 3019.13 957.13, 2963.00 905.00 C 2906.87 852.87, 2783.53 778.73, 2719.00 751.00 C 2654.47 723.27, 2502.73 709.40, 2479.00 697.00 C 2455.27 684.60, 2491.40 659.73, 2541.00 658.00 C 2590.60 656.27, 2827.27 698.40, 2851.00 684.00 C 2874.73 669.60, 2763.67 579.73, 2719.00 550.00 C 2674.33 520.27, 2592.00 476.20, 2516.00 461.00 C 2440.00 445.80, 2222.60 433.20, 2149.00 436.00 C 2075.40 438.80, 2030.27 452.13, 1964.00 482.00 C 1897.73 511.87, 1717.47 606.67, 1652.00 660.00 C 1586.53 713.33, 1494.07 849.33, 1473.00 882.00 Z&#xA;    M 2270.00 238.00 C 2276.93 213.60, 2057.80 164.07, 1981.00 149.00 C 1904.20 133.93, 1761.87 119.00, 1694.00 125.00 C 1626.13 131.00, 1530.13 169.20, 1472.00 194.00 C 1413.87 218.80, 1286.13 303.40, 1258.00 311.00 C 1229.87 318.60, 1240.60 279.80, 1261.00 251.00 C 1281.40 222.20, 1398.47 117.53, 1411.00 95.00 C 1423.53 72.47, 1383.00 77.47, 1355.00 82.00 C 1327.00 86.53, 1242.60 110.47, 1201.00 129.00 C 1159.40 147.53, 1088.20 181.40, 1043.00 221.00 C 997.80 260.60, 898.27 367.60, 862.00 426.00 C 825.73 484.40, 779.13 600.87, 771.00 659.00 C 762.87 717.13, 793.00 830.13, 801.00 862.00 C 809.00 893.87, 822.87 894.27, 831.00 898.00 C 839.13 901.73, 837.33 925.87, 862.00 890.00 C 886.67 854.13, 969.87 686.87, 1016.00 629.00 C 1062.13 571.13, 1179.47 476.40, 1208.00 456.00 C 1236.53 435.60, 1243.33 434.13, 1230.00 476.00 C 1216.67 517.87, 1121.20 720.13, 1108.00 770.00 C 1094.80 819.87, 1105.00 847.87, 1131.00 850.00 C 1157.00 852.13, 1248.87 822.93, 1303.00 786.00 C 1357.13 749.07, 1474.47 623.13, 1537.00 573.00 C 1599.53 522.87, 1719.73 442.13, 1772.00 410.00 C 1824.27 377.87, 1862.60 354.93, 1929.00 332.00 C 1995.40 309.07, 2263.07 262.40, 2270.00 238.00 Z&#xA;    M 2772.00 2235.00 C 2754.53 2226.73, 2751.47 2320.07, 2752.00 2343.00 C 2752.53 2365.93, 2772.80 2345.00, 2776.00 2407.00 C 2779.20 2469.00, 2782.13 2728.27, 2776.00 2808.00 C 2769.87 2887.73, 2753.87 2940.07, 2730.00 3005.00 C 2706.13 3069.93, 2636.87 3225.67, 2597.00 3295.00 C 2557.13 3364.33, 2462.47 3464.73, 2431.00 3525.00 C 2399.53 3585.27, 2398.60 3669.13, 2361.00 3747.00 C 2323.40 3824.87, 2152.07 4077.80, 2149.00 4109.00 C 2145.93 4140.20, 2274.40 4033.53, 2338.00 3981.00 C 2401.60 3928.47, 2567.20 3777.53, 2626.00 3715.00 C 2684.80 3652.47, 2738.87 3584.93, 2779.00 3512.00 C 2819.13 3439.07, 2902.47 3249.20, 2927.00 3168.00 C 2951.53 3086.80, 2959.53 2972.07, 2963.00 2903.00 C 2966.47 2833.93, 2963.67 2716.40, 2953.00 2650.00 C 2942.33 2583.60, 2907.13 2460.33, 2883.00 2405.00 C 2858.87 2349.67, 2789.47 2243.27, 2772.00 2235.00 Z&#xA;    M 362.00 2667.00 C 344.00 2681.40, 312.33 2742.87, 305.00 2773.00 C 297.67 2803.13, 290.20 2850.33, 307.00 2893.00 C 323.80 2935.67, 398.07 3050.47, 431.00 3093.00 C 463.93 3135.53, 530.13 3194.67, 554.00 3212.00 C 577.87 3229.33, 595.33 3242.60, 610.00 3223.00 C 624.67 3203.40, 651.20 3085.27, 664.00 3065.00 C 676.80 3044.73, 674.53 3085.13, 706.00 3071.00 C 737.47 3056.87, 874.53 2982.73, 900.00 2959.00 C 925.47 2935.27, 912.33 2916.73, 897.00 2893.00 C 881.67 2869.27, 845.93 2811.40, 785.00 2781.00 C 724.07 2750.60, 496.40 2680.20, 440.00 2665.00 C 383.60 2649.80, 380.00 2652.60, 362.00 2667.00 Z&#xA;    M 1178.00 1492.00 C 1180.40 1517.87, 1053.87 1626.73, 1010.00 1653.00 C 966.13 1679.27, 893.40 1671.67, 849.00 1689.00 C 804.60 1706.33, 685.13 1794.07, 677.00 1783.00 C 668.87 1771.93, 774.00 1639.20, 788.00 1606.00 C 802.00 1572.80, 778.40 1551.47, 782.00 1534.00 C 785.60 1516.53, 787.00 1485.00, 815.00 1475.00 C 843.00 1465.00, 943.60 1456.73, 992.00 1459.00 C 1040.40 1461.27, 1175.60 1466.13, 1178.00 1492.00 Z&#xA;    M 126.00 2278.00 C 115.73 2284.27, 137.40 2412.33, 153.00 2451.00 C 168.60 2489.67, 228.73 2561.73, 243.00 2568.00 C 257.27 2574.27, 261.73 2519.87, 260.00 2498.00 C 258.27 2476.13, 247.87 2433.33, 230.00 2404.00 C 212.13 2374.67, 136.27 2271.73, 126.00 2278.00 Z" fill="#D4AF37" fill-rule="evenodd"></path>
</svg>